# xmcd
# 
# Track frame offsets:
#     150
#     30334
#     53119
#     89005
#     121503
#     152728
#     165182
#     196344
# 
# Disc length: 2926
# 
# Revision: 0
# Processed by: cddbd v1.5.2PL0 Copyright (c) Steve Scherf et al.
# Submitted via: fre:ac v1.0.17
# 
DISCID=530b6c08
DTITLE=Paul Speidel Band - Paul Speidel Band
DYEAR=2003
DGENRE=Blues
TTITLE0=The Opener
TTITLE1=Skritchy-Skratchy
TTITLE2=Hear My Cry - Breakdown
TTITLE3=Slowburn
TTITLE4=Motor Cycle
TTITLE5=E-Mail "E" Rag
TTITLE6=(It's) A Married Thang
TTITLE7=D-Bop Blues
EXTD=
EXTT0=
EXTT1=
EXTT2=
EXTT3=
EXTT4=
EXTT5=
EXTT6=
EXTT7=
PLAYORDER=
